<?xml version="1.0" encoding="UTF-8"?> <svg xmlns="http://www.w3.org/2000/svg" viewBox="0 0 100 99.88"><defs><style>.cls-1{fill:none;}</style></defs><title>adr</title><g id="Layer_2" data-name="Layer 2"><g id="Layer_1-2" data-name="Layer 1"><path class="cls-1" d="M66.43,67.28a1.62,1.62,0,0,0-1.51,1.6h2.87A1.4,1.4,0,0,0,66.43,67.28Z"></path><path class="cls-1" d="M18.92,48.61H32.39l-6.74-14.8C23.29,39,21.13,43.75,18.92,48.61Z"></path><path class="cls-1" d="M88.6,62c-3.66-4.72-7.3-9.45-11-14.15a2.21,2.21,0,0,0-1.42-.8c-2.46-.08-4.92,0-7.63,0V57.71h-2V31.3c4.88.25,9.73,0,14.35.85a7,7,0,0,1,4.41,11.48C84,45.16,81.82,46,79.81,47.26l15.1,19.4c.2-.44.39-.89.58-1.35a47.86,47.86,0,1,0-3.68,8.21l-2.6-3.33L92.48,67l1.58,2h0ZM36.21,57.63,33,50.58H18l-2.88,7.05H12.62L22,37.32c.78-1.68,1.51-3.38,2.34-5a1.47,1.47,0,0,1,2.69,0C31,40.72,38.77,57.63,38.77,57.63Zm8.24,14.59a3,3,0,0,1-1.52-.37l.24-.75a2.59,2.59,0,0,0,1.3.39c.72,0,1.05-.35,1.05-.8s-.28-.73-1-1c-1-.34-1.44-.88-1.44-1.53A1.68,1.68,0,0,1,45,66.57a2.67,2.67,0,0,1,1.33.34l-.24.71a2.2,2.2,0,0,0-1.11-.31c-.58,0-.91.34-.91.74s.33.65,1,.92c.94.35,1.42.82,1.42,1.63S45.73,72.22,44.45,72.22Zm-3.12-14.4V31.49s0-.06,4.68.07a39,39,0,0,1,8.86.83C61.39,34.11,64.91,40,64,47c-.76,5.91-6.51,10.79-12.85,10.86C48,57.85,44.8,57.82,41.33,57.82ZM51.47,70.56a8.19,8.19,0,0,1-1.85,3.38,2.65,2.65,0,0,1-1.21.64l-.25-.83a2.35,2.35,0,0,0,.86-.48,2.91,2.91,0,0,0,.83-1.09.6.6,0,0,0,.08-.24.83.83,0,0,0-.07-.26l-2-5h1.07l1.19,3.2c.12.35.26.78.35,1.1h0c.1-.32.21-.74.34-1.13l1.08-3.17h1Zm4.29,1.66a3.06,3.06,0,0,1-1.53-.37l.25-.75a2.59,2.59,0,0,0,1.3.39c.71,0,1-.35,1-.8s-.28-.73-1-1c-1-.34-1.43-.88-1.43-1.53a1.68,1.68,0,0,1,1.87-1.59,2.67,2.67,0,0,1,1.33.34l-.25.71a2.12,2.12,0,0,0-1.1-.31c-.58,0-.91.34-.91.74s.33.65,1,.92c.94.35,1.42.82,1.42,1.63S57,72.22,55.76,72.22Zm6.72-4.77H61.07v2.91c0,.68.19,1.06.74,1.06a2.43,2.43,0,0,0,.57-.07l0,.74a2.37,2.37,0,0,1-.87.13,1.34,1.34,0,0,1-1.06-.41,2,2,0,0,1-.38-1.41v-3h-.84V66.7h.84V65.4l1-.26V66.7h1.41Zm6.23,2.13H64.9a1.74,1.74,0,0,0,1.86,1.88,3.5,3.5,0,0,0,1.5-.28l.17.71a4.53,4.53,0,0,1-1.8.33A2.51,2.51,0,0,1,64,69.49a2.63,2.63,0,0,1,2.53-2.92,2.3,2.3,0,0,1,2.24,2.55A4.19,4.19,0,0,1,68.71,69.58Zm9.82,2.53h-1V69.05c0-1-.38-1.67-1.18-1.67a1.27,1.27,0,0,0-1.16.89,1.54,1.54,0,0,0-.08.5v3.34h-1V68.87c0-.87-.38-1.49-1.13-1.49a1.34,1.34,0,0,0-1.22,1,1.31,1.31,0,0,0-.08.48v3.27h-1v-4c0-.56,0-1,0-1.46h.87l0,.87h0a1.87,1.87,0,0,1,1.7-1,1.61,1.61,0,0,1,1.54,1.09h0a2.38,2.38,0,0,1,.6-.71,1.91,1.91,0,0,1,1.2-.38c.72,0,1.78.47,1.78,2.35Zm3.58.11a3,3,0,0,1-1.52-.37l.24-.75a2.59,2.59,0,0,0,1.3.39c.72,0,1.05-.35,1.05-.8s-.28-.73-1-1c-1-.34-1.43-.88-1.43-1.53a1.68,1.68,0,0,1,1.87-1.59,2.67,2.67,0,0,1,1.33.34l-.24.71a2.2,2.2,0,0,0-1.11-.31c-.58,0-.91.34-.91.74s.33.65,1,.92c.94.35,1.42.82,1.42,1.63S83.39,72.22,82.11,72.22Z"></path><path class="cls-1" d="M62,46.07c.57-4.37-1.52-10.13-7.43-11.72-3.39-.91-7-.79-10.78-.79V55.87c2.59,0,5,0,7.5,0A10.88,10.88,0,0,0,62,46.07Z"></path><path class="cls-1" d="M84.84,39.93c.26-3-1.26-5.53-4.3-5.94-3.9-.52-7.87-.5-11.94-.71V45.06c3.62,0,7.08.14,10.51,0A5.88,5.88,0,0,0,84.84,39.93Z"></path><path d="M64,47c.89-7-2.63-12.85-9.15-14.57A39,39,0,0,0,46,31.56c-4.68-.13-4.68-.07-4.68-.07V57.82c3.47,0,6.66,0,9.84,0C57.51,57.75,63.26,52.87,64,47ZM43.78,55.87V33.56c3.79,0,7.39-.12,10.78.79,5.91,1.59,8,7.35,7.43,11.72a10.88,10.88,0,0,1-10.71,9.8C48.83,55.9,46.37,55.87,43.78,55.87Z"></path><path d="M24.36,32.29c-.83,1.65-1.56,3.35-2.34,5l-9.4,20.31h2.52L18,50.58H33l3.22,7.05h2.56S31,40.72,27.05,32.29A1.47,1.47,0,0,0,24.36,32.29ZM18.92,48.61c2.21-4.86,4.37-9.6,6.73-14.8l6.74,14.8Z"></path><path d="M83.94,83.84a48,48,0,0,1-67.88,0A47.94,47.94,0,0,1,50,2,48,48,0,0,1,95.49,65.31c-.19.46-.38.91-.58,1.35l-15.1-19.4c2-1.27,4.17-2.1,5.55-3.63A7,7,0,0,0,81,32.15c-4.62-.89-9.47-.6-14.35-.85V57.71h2V47c2.71,0,5.17,0,7.63,0a2.21,2.21,0,0,1,1.42.8c3.68,4.7,7.32,9.43,11,14.15l5.46,7h0l1.38,1.77h0a49.59,49.59,0,0,0,2.94-8.25c0-.08,0-.16.07-.24s.07-.3.11-.45c.1-.43.2-.86.29-1.28a50.08,50.08,0,0,0-2.31-28.89c-.38-1-.79-1.9-1.22-2.83l-.15-.33L94.92,28A50,50,0,0,0,21.14,9.15,46.2,46.2,0,0,0,7.5,23.63,49.5,49.5,0,0,0,.44,43.31c-.12.91-.22,1.83-.29,2.76Q0,48,0,49.94c0,1.31.05,2.6.15,3.88.06.78.14,1.55.23,2.32A72.41,72.41,0,0,0,2.2,64,53,53,0,0,0,15,85.56a45.75,45.75,0,0,0,4.89,4.21l.35.27.23.17a49.84,49.84,0,0,0,21.8,9.07c1.48.23,3,.4,4.51.5,1.08.07,2.17.1,3.27.1s2.19,0,3.27-.1A53.07,53.07,0,0,0,59,99.09a49.55,49.55,0,0,0,10.22-3,50.19,50.19,0,0,0,24-20.87l-1.32-1.69A47.84,47.84,0,0,1,83.94,83.84ZM68.6,45.06V33.28c4.07.21,8,.19,11.94.71,3,.41,4.56,2.89,4.3,5.94A5.88,5.88,0,0,1,79.11,45C75.68,45.2,72.22,45.06,68.6,45.06Z"></path><path d="M45.05,69c-.7-.27-1-.47-1-.92s.33-.74.91-.74a2.2,2.2,0,0,1,1.11.31l.24-.71A2.67,2.67,0,0,0,45,66.57a1.68,1.68,0,0,0-1.87,1.59c0,.65.46,1.19,1.44,1.53.72.27,1,.53,1,1s-.33.8-1.05.8a2.59,2.59,0,0,1-1.3-.39l-.24.75a3,3,0,0,0,1.52.37c1.28,0,2-.67,2-1.62S46,69.32,45.05,69Z"></path><path d="M50.83,69.87c-.13.39-.24.81-.34,1.13h0c-.09-.32-.23-.75-.35-1.1l-1.19-3.2H47.86l2,5a.83.83,0,0,1,.07.26.6.6,0,0,1-.08.24A2.91,2.91,0,0,1,49,73.27a2.35,2.35,0,0,1-.86.48l.25.83a2.65,2.65,0,0,0,1.21-.64,8.19,8.19,0,0,0,1.85-3.38L53,66.7h-1Z"></path><path d="M56.36,69c-.7-.27-1-.47-1-.92s.33-.74.91-.74a2.12,2.12,0,0,1,1.1.31l.25-.71a2.67,2.67,0,0,0-1.33-.34,1.68,1.68,0,0,0-1.87,1.59c0,.65.46,1.19,1.43,1.53.73.27,1,.53,1,1s-.34.8-1,.8a2.59,2.59,0,0,1-1.3-.39l-.25.75a3.06,3.06,0,0,0,1.53.37c1.28,0,2-.67,2-1.62S57.3,69.32,56.36,69Z"></path><path d="M61.07,65.14l-1,.26v1.3h-.84v.75h.84v3a2,2,0,0,0,.38,1.41,1.34,1.34,0,0,0,1.06.41,2.37,2.37,0,0,0,.87-.13l0-.74a2.43,2.43,0,0,1-.57.07c-.55,0-.74-.38-.74-1.06V67.45h1.41V66.7H61.07Z"></path><path d="M66.5,66.57A2.63,2.63,0,0,0,64,69.49a2.51,2.51,0,0,0,2.66,2.73,4.53,4.53,0,0,0,1.8-.33l-.17-.71a3.5,3.5,0,0,1-1.5.28,1.74,1.74,0,0,1-1.86-1.88h3.81a4.19,4.19,0,0,0,0-.46A2.3,2.3,0,0,0,66.5,66.57Zm-1.58,2.31a1.62,1.62,0,0,1,1.51-1.6,1.4,1.4,0,0,1,1.36,1.6Z"></path><path d="M76.75,66.57a1.91,1.91,0,0,0-1.2.38,2.38,2.38,0,0,0-.6.71h0a1.61,1.61,0,0,0-1.54-1.09,1.87,1.87,0,0,0-1.7,1h0l0-.87h-.87c0,.44,0,.9,0,1.46v4h1V68.84a1.31,1.31,0,0,1,.08-.48,1.34,1.34,0,0,1,1.22-1c.75,0,1.13.62,1.13,1.49v3.24h1V68.77a1.54,1.54,0,0,1,.08-.5,1.27,1.27,0,0,1,1.16-.89c.8,0,1.18.62,1.18,1.67v3.06h1V68.92C78.53,67,77.47,66.57,76.75,66.57Z"></path><path d="M82.71,69c-.7-.27-1-.47-1-.92s.33-.74.91-.74a2.2,2.2,0,0,1,1.11.31l.24-.71a2.67,2.67,0,0,0-1.33-.34,1.68,1.68,0,0,0-1.87,1.59c0,.65.46,1.19,1.43,1.53.73.27,1,.53,1,1s-.33.8-1.05.8a2.59,2.59,0,0,1-1.3-.39l-.24.75a3,3,0,0,0,1.52.37c1.28,0,2-.67,2-1.62S83.65,69.32,82.71,69Z"></path></g></g></svg> 