<?xml version="1.0" encoding="UTF-8"?> <svg xmlns="http://www.w3.org/2000/svg" viewBox="0 0 100 96.13"><title>amerisource</title><g id="Layer_2" data-name="Layer 2"><g id="Layer_1-2" data-name="Layer 1"><path d="M0,16.14C7.08,8,15.41,2.6,25.87.71,36-1.12,45.44.65,54.58,5.22,68.45,12.15,77.74,23,81.8,37.85c4.18,15.24.91,29.47-8.13,42.36A51,51,0,0,1,60.34,93c-.54.36-1.12.67-1.85,1.11,1.82-2.86,3.63-5.46,5.19-8.2a50.38,50.38,0,0,0,6.81-25c.05-14.21-4.55-26.74-15-36.62-7-6.69-15.19-11.73-24.94-13.66C22.5,9,14.67,10.28,7,13,4.74,13.84,2.57,15,0,16.14Z"></path><path d="M100,96a2.25,2.25,0,0,1-.44.16H58.82c16.79-7.24,29.25-18.69,33.66-37.07s-.17-34.47-13.82-48H100Z"></path><path d="M55.53,94.75c.23-4.08.76-8.33.65-12.57A51.08,51.08,0,0,0,22,35.31a3.88,3.88,0,0,1-2-1.81C18,29.15,15.66,25,12,21.75c-.88-.78-1.86-1.44-2.83-2.18,12.29-2.1,32.08,2.25,44.59,19.48C66.8,57,65,81,55.53,94.75Z"></path><path d="M52.87,96.08H15c5.5-7.4,7.79-15.81,9.28-24.72A52.2,52.2,0,0,1,52.87,96.08Z"></path><path d="M53.54,94.22a52,52,0,0,0-7.71-14.9A52.85,52.85,0,0,0,26.76,63.4a2.61,2.61,0,0,1-1.66-2.7c-.07-4.13-.36-8.25-.56-12.36C41,54.83,53.88,74.25,53.54,94.22Z"></path></g></g></svg> 