<?xml version="1.0" encoding="UTF-8"?> <svg xmlns="http://www.w3.org/2000/svg" viewBox="0 0 100 92.33"><title>baird</title><g id="Layer_2" data-name="Layer 2"><g id="Layer_1-2" data-name="Layer 1"><path d="M100,0V55.56l-.16,0-27.27,10L47.38,74.94,16.31,86.39.47,92.23a3.56,3.56,0,0,1-.47.1V36.85l.39-.13,21.29-7.84L51.05,18.05,76.24,8.77,94.83,1.92ZM66.26,60.12l-.47,0a2.53,2.53,0,0,1-1.14-.31,4.44,4.44,0,0,1-1.64-2c-1-2.34-2.08-4.69-3.13-7a9.72,9.72,0,0,0-.68-1.22,2.28,2.28,0,0,0-.5-.53c-.27-.21-.56-.38-.87-.59l.23-.12A4.64,4.64,0,0,0,60.31,46a3.56,3.56,0,0,0,0-3,9.09,9.09,0,0,0-.69-1.16,3,3,0,0,0-1.08-.94,5.15,5.15,0,0,0-2.49-.6H47l-.49,0c0,.23,0,.43,0,.64a.46.46,0,0,0,.25.47c.37.23.72.52,1.1.73a.75.75,0,0,1,.39.77q0,7.07,0,14.14v.5a20.76,20.76,0,0,0,3.7,0v-13c0-.86,0-1.72,0-2.58,1,0,2-.07,2.89,0a2.27,2.27,0,0,1,2,1.58,4.93,4.93,0,0,1,.21,1.7,4.67,4.67,0,0,1-.45,2,.69.69,0,0,1-.72.49,5.25,5.25,0,0,0-2.37.64c0,.56,0,1.1,0,1.69a2.75,2.75,0,0,0,.48-.15,1.9,1.9,0,0,1,1-.15,1.12,1.12,0,0,1,1,.67c.22.47.38,1,.58,1.45.87,2,1.69,4,2.63,6a6.2,6.2,0,0,0,2.35,2.7,5.79,5.79,0,0,0,2.2.9,21.88,21.88,0,0,0,2.3.1.61.61,0,0,0,.18-.05ZM5.51,40.37a4.5,4.5,0,0,1,0,.53.6.6,0,0,0,.33.64c.34.2.64.47,1,.66a.81.81,0,0,1,.42.8q0,7.06,0,14.13c0,.17,0,.35,0,.57h.57c2.65,0,5.3,0,8,0a5.5,5.5,0,0,0,3.57-1.47,4.16,4.16,0,0,0,1.32-2.18A3.65,3.65,0,0,0,20.77,52c-.08-.26-.15-.52-.24-.78a4.9,4.9,0,0,0-3.08-3l-.22-.08c.44-.37.9-.69,1.29-1.09a3.56,3.56,0,0,0,1.05-2.47,3.89,3.89,0,0,0-.64-2.21,3.93,3.93,0,0,0-.41-.57,5.42,5.42,0,0,0-.91-.75A4.94,4.94,0,0,0,15,40.34H6Zm58.89,0c0,.21,0,.39,0,.56a.54.54,0,0,0,.3.57c.44.27.87.57,1.31.85a.41.41,0,0,1,.22.4c0,.13,0,.25,0,.37v14c0,.19,0,.37,0,.61h.52c2,0,3.93,0,5.89,0a8.43,8.43,0,0,0,4.56-1.47A8,8,0,0,0,79,54.53a7.54,7.54,0,0,0,1.52-3.11,10.17,10.17,0,0,0,.16-3.89,8.57,8.57,0,0,0-.55-2.23,9.08,9.08,0,0,0-3.77-4,.39.39,0,0,0-.11-.06,11.52,11.52,0,0,0-4.37-.88c-2.33,0-4.67,0-7,0ZM21.14,57.7c.88,0,1.68,0,2.47,0a.51.51,0,0,0,.55-.37c.54-1.3,1.11-2.6,1.66-3.9.06-.14.13-.27.19-.39h6.13c.06.13.12.25.17.38.55,1.29,1.11,2.57,1.64,3.87a.57.57,0,0,0,.64.41c1,0,2,0,3,0l.44,0c-.07-.19-.12-.33-.18-.47L33.5,46.86c-.88-2.06-1.76-4.11-2.63-6.18a.47.47,0,0,0-.52-.34,13.08,13.08,0,0,1-1.4,0,.57.57,0,0,0-.63.42q-3.5,8.25-7,16.48ZM40,40.37c-.08.56,0,17,0,17.3h3.58V40.37Z"></path><path d="M10.93,42S11,42,11,42a16,16,0,0,1,3.32.11,1.33,1.33,0,0,1,.51.24A2.87,2.87,0,0,1,16,45.15a8.8,8.8,0,0,0-.1,1,3.16,3.16,0,0,1-.31,1.1.7.7,0,0,1-.73.48,6.19,6.19,0,0,0-2.16.5.43.43,0,0,0-.3.47c0,.43,0,.87,0,1.36l.43-.19a3.45,3.45,0,0,1,2.88,0,2.71,2.71,0,0,1,1.2,1.3A3,3,0,0,1,17.18,53a3.57,3.57,0,0,1-.67,1.82A3.08,3.08,0,0,1,15.05,56a4.17,4.17,0,0,1-1.05.16c-.95,0-1.9,0-2.84,0-.07,0-.13,0-.23,0Z"></path><path d="M69.94,56.17V42a1.87,1.87,0,0,1,.32,0c.37,0,.74,0,1.11,0A4.64,4.64,0,0,1,74.24,43a8.79,8.79,0,0,1,1.22,1.22,6.7,6.7,0,0,1,1.27,2.51,8,8,0,0,1-.79,6.39A6.06,6.06,0,0,1,74.32,55a5.81,5.81,0,0,1-3.27,1.19C70.7,56.19,70.34,56.17,69.94,56.17Z"></path><path d="M26.77,51.12l2.32-5.69,2.29,5.69Z"></path></g></g></svg> 