<?xml version="1.0" encoding="UTF-8"?> <svg xmlns="http://www.w3.org/2000/svg" viewBox="0 0 100 80.75"><title>brewer</title><g id="Layer_2" data-name="Layer 2"><g id="Layer_1-2" data-name="Layer 1"><path d="M23.25,80.75c-.18-1.45-.37-2.91-.55-4.36-.12-.92-.24-1.84-.37-2.8h1.91l.47,4.87h.11c.74-1.4,1.5-2.8,2.2-4.22a1,1,0,0,1,1.13-.69c.37,0,.75,0,1.21,0l.56,5.06,1.47-2.82c.3-.57.6-1.13.87-1.71a.79.79,0,0,1,.92-.53c.38,0,.78,0,1.28,0l-.45.85-3.19,5.82a4.5,4.5,0,0,0-.2.51H28.37L27.94,76l-.19,0-2.38,4.74Z"></path><path d="M68.5,0c1.24.36,1.57,1.42,1.87,2.48a13.44,13.44,0,0,1-.2,7.36c-.76,2.78-1.69,5.51-2.58,8.26a.73.73,0,0,1-.48.37c-.09,0-.3-.25-.35-.41A3.4,3.4,0,0,1,67,15.63a12.11,12.11,0,0,0,.84-5.85c-.23-2.56-.63-5.09-.93-7.64-.09-.8-.14-1.65.73-2.14Z"></path><path d="M0,80.38c.29-1.26.59-2.51.87-3.76.39-1.77.75-3.55,1.15-5.31a.6.6,0,0,1,.39-.41,15.14,15.14,0,0,1,1.53,0l-.55,2.74c.76,0,1.5,0,2.23,0A2.19,2.19,0,0,1,8,76a4.57,4.57,0,0,1-2.9,4.49l-.69.23H0Zm3.05-5.26L2.2,79.26H3.42a2.25,2.25,0,0,0,2.39-1.84c.46-1.57-.09-2.3-1.72-2.3Z"></path><path d="M51.25,80.75c.13-.47.11-1.11.42-1.36s.91-.06,1.38-.07c.92,0,1.83,0,2.75-.07a1.05,1.05,0,0,0,.69-.33.88.88,0,0,0,.15-.72c-.06-.16-.38-.3-.59-.32-.85,0-1.7,0-2.55-.07-1.14-.11-1.56-.7-1.36-1.82a2.61,2.61,0,0,1,2.59-2.39h4.43a8.22,8.22,0,0,1-.25,1.14.55.55,0,0,1-.45.26c-1,0-2,0-2.94,0a1.88,1.88,0,0,0-.9.14,1.21,1.21,0,0,0-.46.77c0,.12.39.4.62.42a16.52,16.52,0,0,0,2,0c1.17,0,2.15.68,1.75,2.15a3.31,3.31,0,0,1-1.77,2.23Z"></path><path d="M77.37,80.75c.31-1.53.61-3.07.92-4.6.15-.73.29-1.46.48-2.17a.71.71,0,0,1,.47-.41c1.27,0,2.54,0,3.8,0,1.89.07,2,1.18,1.77,2.42-.26,1.43-.61,2.86-.92,4.29a3,3,0,0,0,0,.43H82c0-.18,0-.37.06-.55.27-1.34.56-2.67.82-4,.14-.7-.14-1-.88-1.06-.52,0-1,0-1.6,0-.1.39-.19.77-.28,1.15-.33,1.48-.66,3-1,4.46Z"></path><path d="M16.87,80.75c-1-.31-1.79-.78-2-1.89-.29-2,.74-5.15,3.81-5.24,1.07,0,2.15,0,3.3,0a6.72,6.72,0,0,1-.2,1.12c0,.14-.34.26-.53.27-.91.06-1.82,0-2.73.13s-1.05.36-1.27,1.25h4.18a5.81,5.81,0,0,0-.21.94c0,.53-.3.58-.73.57-1,0-2,0-3,0l-.59,0c-.19,1,0,1.3.92,1.34s1.95,0,2.95,0l-.2,1.49Z"></path><path d="M35.87,80.75A2.53,2.53,0,0,1,34,79.05a4.36,4.36,0,0,1,3.68-5.42c1.09-.06,2.19,0,3.39,0a8.18,8.18,0,0,1-.25,1.15c0,.12-.3.23-.47.24-.91,0-1.82.07-2.73.11s-1.12.51-1.32,1.25h4.19a9.91,9.91,0,0,1-.29,1.29c0,.12-.32.22-.49.22-1.23,0-2.45,0-3.66,0-.32.92-.1,1.33.8,1.36s2,0,3.05,0l-.35,1.49Z"></path><path d="M72.5,80.75c-.93-.26-1.74-.63-2-1.69a4.32,4.32,0,0,1,3.86-5.44c1-.09,2.11,0,3.16,0a.51.51,0,0,1,0,.12C77.32,75,77.32,75,76,75a18.77,18.77,0,0,0-2,.11c-.68.09-1,.49-1.11,1.25H77l-.3,1.51c-1.21,0-2.39,0-3.58,0-.27,0-.7-.21-.74.36s.16.9.71,1a12.4,12.4,0,0,0,1.36.08c.62,0,1.24,0,1.9,0l-.22,1.43Z"></path><path d="M94.87,80.75c-.94-.28-1.83-.69-2-1.78-.32-2.45.71-5.47,4.44-5.41.88,0,1.77,0,2.66-.06v.38L99.67,75c-.83,0-1.66,0-2.49,0-1.22,0-1.8.44-1.9,1.36h4.14l-.34,1.51c-1.25,0-2.48,0-3.7,0-.6,0-.84.33-.53.86a1.1,1.1,0,0,0,.76.48c1,.06,2.06,0,3.17,0l-.28,1.5Z"></path><path d="M61.87,80.75l-.57-.19a2.26,2.26,0,0,1-1.67-2.34,4.4,4.4,0,0,1,2.24-4.15,4.3,4.3,0,0,1,1.66-.43c1-.07,2.11,0,3.23,0l-.31,1.5H64a2.59,2.59,0,0,0-2.37,3.22,1.46,1.46,0,0,0,1.49.91c.79,0,1.57,0,2.41,0l-.3,1.5Z"></path><path d="M87.87,80.75a.84.84,0,0,0-.21-.11,2.33,2.33,0,0,1-2-2.56,4.62,4.62,0,0,1,1.93-3.84,4.79,4.79,0,0,1,2.6-.67c.83,0,1.67,0,2.61,0l-.3,1.56H90a2.58,2.58,0,0,0-2.29,3.21,1.41,1.41,0,0,0,1.47.92c.79,0,1.58,0,2.44,0l-.35,1.5Z"></path><path d="M8.25,80.75,9.8,73.63c1.34,0,2.66,0,4,0a.83.83,0,0,1,.82.86,11.36,11.36,0,0,1-.26,1.83c0,.08-.22.18-.33.18-.48,0-.95,0-1.44,0a3.57,3.57,0,0,1,.08-.71c.18-.5.09-.8-.47-.89s-.83,0-.95.63c-.33,1.74-.73,3.47-1.11,5.2Z"></path><path d="M40.75,80.75c.38-1.71.75-3.43,1.12-5.14.15-.66.29-1.32.43-2,1.36,0,2.69,0,4,0a.82.82,0,0,1,.8.94c0,.61-.15,1.22-.24,1.88H45.09a2.82,2.82,0,0,1,.09-.71c.17-.49,0-.75-.49-.84s-.83,0-.95.56c-.35,1.76-.74,3.51-1.12,5.27Z"></path><path d="M66.62,80.75c.27-1.35.53-2.7.8-4,.19-.91.38-1.82.6-2.71,0-.17.25-.4.4-.41a14,14,0,0,1,1.6,0L68.5,80.75Z"></path><path d="M42.76,58c.35.69.06,1.22-.77,1.43a12,12,0,0,1-9.65-1.53,12.51,12.51,0,0,1-5.85-7.66,7.36,7.36,0,0,1,1.28-6.7.72.72,0,0,1,.83-.33l9,2.1,2.11.5c.45.11.5.36.17.64a1.2,1.2,0,0,1-.71.33c-1.18,0-2.36-.1-3.54-.18-.45,0-.89-.12-1.37-.19a5.71,5.71,0,0,0,.52,3.89,11.45,11.45,0,0,0,5.52,5.61,24.18,24.18,0,0,0,2.26,1C43.4,57.19,43.44,57.38,42.76,58ZM31.18,45.61a5.58,5.58,0,0,0-.47,4.52A10.67,10.67,0,0,0,39,57.74a14,14,0,0,0,1.71.22l.07-.2c-5.9-1.76-9.55-5.19-8.94-11.89Z"></path><path d="M65.15,51.58a3,3,0,0,0-1.51-1.8c-1.37-.76-2.75-1.52-4.19-2.14-2.22-.94-4.51-1.72-6.74-2.64a46.33,46.33,0,0,1-11.49-6.94C37,34.6,34,30.16,31.4,25.41c-1.46-2.73-2.69-5.59-4-8.39a15.49,15.49,0,0,1-.78-1.88,1,1,0,0,1,.57-1.33c.77-.31,1.34-.21,1.66.42a8.61,8.61,0,0,1,.53,1.5c.27.91.44,1.85.78,2.72a52.85,52.85,0,0,0,6.3,11.94,37.4,37.4,0,0,0,9.1,8.51,56.49,56.49,0,0,0,11.51,5.74,33.35,33.35,0,0,1,8.14,4.44,5.49,5.49,0,0,1,2,3.21A13.93,13.93,0,0,0,68,54a2.36,2.36,0,0,1,.25,1.06.85.85,0,0,1-.54.59c-.24,0-.68-.22-.73-.43-.29-1-1.1-1.32-2-1.65a14.62,14.62,0,0,1-1.51-.69,1.12,1.12,0,0,1-.46-.48,1.27,1.27,0,0,1-.12-.69c0-.06.36-.11.56-.12C64,51.6,64.55,51.59,65.15,51.58Z"></path><path d="M56.17,41.17A1.55,1.55,0,0,1,56,39.28a43.87,43.87,0,0,0,5.26-11.5,34.94,34.94,0,0,0,1.12-6.34A38.77,38.77,0,0,0,61.33,10,2.22,2.22,0,0,1,62,7.9a1.07,1.07,0,0,1,1-.22,1.28,1.28,0,0,1,.64.81c.35,1.61.65,3.23.92,4.86a31.75,31.75,0,0,1,.41,6.82,30.81,30.81,0,0,1-2,9.48,44,44,0,0,1-6.41,11C56.41,40.79,56.33,40.94,56.17,41.17Z"></path><path d="M19.77,8.87A1.71,1.71,0,0,1,21.6,10a31,31,0,0,1,1.13,3.9c.45,2,.63,4.09,1.55,6s1.85,3.38,2.77,5.07a3.59,3.59,0,0,1,.4.9.78.78,0,0,1-.17.64.64.64,0,0,1-.64,0,7,7,0,0,1-1.24-1.38,80.18,80.18,0,0,1-6.3-11.59,12.25,12.25,0,0,1-.7-3.24C18.29,9.24,18.75,8.88,19.77,8.87Z"></path><path d="M13.6,16.93a3,3,0,0,1,2.23,1.56c.79,1.21,1.5,2.48,2.21,3.74a31.82,31.82,0,0,0,5.64,7.17A8,8,0,0,1,25,31.18c.27.47,0,.84-.52.63a7.24,7.24,0,0,1-2.18-1.26,53,53,0,0,1-8.45-10.43A11.66,11.66,0,0,1,12.93,18,.71.71,0,0,1,13.6,16.93Z"></path><path d="M71.75,20.09A14.15,14.15,0,0,1,72,18.24c.4-1.59.9-3.17,1.3-4.76a14.9,14.9,0,0,0,.29-5.07,18.55,18.55,0,0,1,0-2.79,2.48,2.48,0,0,1,.38-1c.22-.39.59-.78,1-.55a1.53,1.53,0,0,1,.76,1,11.36,11.36,0,0,1,.37,3,30.15,30.15,0,0,1-.67,4.84,26.2,26.2,0,0,1-2.84,6.78,4.34,4.34,0,0,1-.48.58Z"></path><path d="M58.67,63.63c-.5-.18-.94-.39-1.41-.51a1.27,1.27,0,0,0-.91,0c-.17.11-.1.55-.15.88a1.28,1.28,0,0,1-1.29-1.27c0-.71-.36-.91-.86-1.14-.71-.33-1.41-.7-2.12-1a1.15,1.15,0,0,1-.81-1,9.76,9.76,0,0,1,0-1.71.64.64,0,0,1,.48-.42c.22,0,.39.29.58.46a.27.27,0,0,1,0,.18c-.17,1.07.53,1.37,1.36,1.69,2.12.81,4.21,1.67,6.3,2.55a5.67,5.67,0,0,1,1.37.84c.54.43.49,1-.16,1.26a13.48,13.48,0,0,1-2.36.64.67.67,0,0,1-.59-.25,1.14,1.14,0,0,1,.11-.71C58.33,64,58.49,63.86,58.67,63.63Z"></path><path d="M21.42,34.35a12.82,12.82,0,0,1-1.88-.12,16.79,16.79,0,0,1-7.86-4,3.46,3.46,0,0,1-.69-.95c-.33-.66,0-1.2.7-1.18a2.71,2.71,0,0,1,1.34.38c1.29.86,2.53,1.8,3.8,2.69a9.81,9.81,0,0,0,3.55,1.7C21.22,33.07,21.35,33.3,21.42,34.35Z"></path><path d="M61.27,60.43c0,.16,0,.28,0,.41,0,.44-.47.67-.71.34-.53-.7-1.28-.54-2-.69s-1-.22-1.56-.37a2,2,0,0,1-.66-.34c-.51-.39-.49-.79.12-.91a6.57,6.57,0,0,1,2.42-.08,13.25,13.25,0,0,0,3.45-.07c.46,0,.9-.15,1.35-.21a2,2,0,0,1,2.07,1.16c.35.72-.5,1.75-1.42,1.69A8.75,8.75,0,0,1,63,61.12a.76.76,0,0,1-.37-.21C62.13,60.31,62.09,60.28,61.27,60.43Z"></path><path d="M81.62,10.73c-.39,1.13-.78,2.26-1.19,3.38A12.49,12.49,0,0,1,78,17.92c-.63.74-1.12,1.59-1.68,2.38-.25.37-.43.88-1,.76a1.86,1.86,0,0,1,0-1.09,10.48,10.48,0,0,1,1.1-2.13,26.11,26.11,0,0,0,3-6.44A5.13,5.13,0,0,1,80.35,10a.9.9,0,0,1,.72-.31c.18,0,.29.4.4.64a1.09,1.09,0,0,1,0,.37Z"></path><path d="M47.16,59.9a3,3,0,0,1,2.19-2.23c.11,0,.39.35.35.44a4.16,4.16,0,0,1-2,2.21C47.29,60.53,47.18,60.23,47.16,59.9Z"></path><path d="M70.22,72.61l-.14.06H68.3l.36-1.75h1.91Z"></path><path d="M50.73,59.66a5.55,5.55,0,0,1-.34,1.16.83.83,0,0,1-.66.3c-.15,0-.44-.28-.43-.42a10.21,10.21,0,0,1,.27-1.92c0-.18.44-.36.68-.36s.28.37.36.6a2.11,2.11,0,0,1,0,.62Z"></path></g></g></svg> 