<?xml version="1.0" encoding="UTF-8"?> <svg xmlns="http://www.w3.org/2000/svg" viewBox="0 0 100 23.55"><title>priceline</title><g id="Layer_2" data-name="Layer 2"><g id="Layer_1-2" data-name="Layer 1"><path d="M0,23.55V0H100V23.55ZM7.7,17l.31.26a3.26,3.26,0,0,0,3.77.38A4.31,4.31,0,0,0,13.4,16a6.13,6.13,0,0,0,.76-3.75,5.64,5.64,0,0,0-1.41-3.36,3.32,3.32,0,0,0-4.58-.52c-.15.1-.28.22-.46.36V8.06H4.86V21H7.7Zm35.56-3.63A13.22,13.22,0,0,0,43,11.29a4.82,4.82,0,0,0-6-3.53,4.57,4.57,0,0,0-3.18,3,6.78,6.78,0,0,0-.17,3.79,4.17,4.17,0,0,0,1.72,2.64,5.05,5.05,0,0,0,5.52.21,4.15,4.15,0,0,0,2-2.19c0-.09.11-.19-.05-.26L41,14.18c-.64,1.17-1.5,1.94-2.92,1.56a2.82,2.82,0,0,1-1.83-2.39Zm22.09,0H72.4a12.25,12.25,0,0,0-.23-2.06,4.82,4.82,0,0,0-6-3.53,4.57,4.57,0,0,0-3.18,3,6.7,6.7,0,0,0-.17,3.79,4.36,4.36,0,0,0,1.85,2.74,4.92,4.92,0,0,0,3.21.78,5,5,0,0,0,3.41-1.67A3.68,3.68,0,0,0,72.07,15l-1.94-.82a6.71,6.71,0,0,1-.39.62,2.22,2.22,0,0,1-3.46.37A3.22,3.22,0,0,1,65.35,13.35ZM61.9,17.79a.46.46,0,0,0,0-.1V10.54a2.1,2.1,0,0,0-.59-1.44,3.93,3.93,0,0,0-5.18-.37V8.12H53.27v9.56h2.88V11.49a.81.81,0,0,1,.05-.31,1.57,1.57,0,0,1,1.62-.88A1.41,1.41,0,0,1,59,11.65v6.14ZM33.44,8.91a1.25,1.25,0,0,0-.17-.16,4.72,4.72,0,0,0-4.13-.87,5.12,5.12,0,0,0-3.71,5.8A5,5,0,0,0,31,18a4.76,4.76,0,0,0,2.57-1.23c-.43-.64-.86-1.26-1.29-1.88l-.09-.1-.14.19a1.84,1.84,0,0,1-3,.23A3.64,3.64,0,0,1,29,10.59a1.8,1.8,0,0,1,2.62-.28,6.93,6.93,0,0,1,.64.68ZM47,17.69V4.22H44.16V17.69ZM20.69,10.44V8a5.22,5.22,0,0,0-2.78.93V8H15v9.67h2.88v-.34c0-1.76,0-3.51,0-5.27a1,1,0,0,1,.5-.93l.28-.16A5,5,0,0,1,20.69,10.44Zm67.77,7.3v-3.5a.67.67,0,0,1,.65-.7.66.66,0,0,1,.64.71v3.48h1.66V14.24a.65.65,0,0,1,.64-.7.67.67,0,0,1,.64.71v3.47h1.64a.93.93,0,0,0,0-.14c0-1.43,0-2.85,0-4.27A.5.5,0,0,0,94.2,13a2,2,0,0,0-1.67-.61,2.07,2.07,0,0,0-1.29.57,2.18,2.18,0,0,0-2.75-.18,3.62,3.62,0,0,0-1.67-.08v5.06Zm-63.93,0V8.11H21.66v9.58ZM48.76,8.11v9.57h2.87V8.11ZM83.24,18a2.88,2.88,0,1,0,0-5.76,2.88,2.88,0,1,0,0,5.76Zm-3.83-1.79-.19.22a1.09,1.09,0,0,1-1.63,0,1.93,1.93,0,0,1,0-2.53,1.09,1.09,0,0,1,1.68.06l.17.19L80.13,13a2.83,2.83,0,0,0-3.68,4.29,2.79,2.79,0,0,0,3.73,0ZM23.05,4.39a1.44,1.44,0,1,0,0,2.88,1.44,1.44,0,1,0,0-2.88Zm27.1,0A1.44,1.44,0,1,0,51.6,5.82,1.44,1.44,0,0,0,50.15,4.39ZM94.09,8.06a2,2,0,0,0,2,2.08,2.09,2.09,0,0,0,2.06-2.07,2,2,0,1,0-4.09,0ZM73.83,18A1.1,1.1,0,0,0,75,16.87a1.13,1.13,0,0,0-1.12-1.11,1.09,1.09,0,0,0-1.09,1.09A1.07,1.07,0,0,0,73.83,18Z"></path><path d="M7.47,12.78A3.73,3.73,0,0,1,8,10.86a1.59,1.59,0,0,1,2.84-.07,3.39,3.39,0,0,1,.58,2.12A3.1,3.1,0,0,1,11,14.49a3.69,3.69,0,0,1-.64.82A1.51,1.51,0,0,1,8.15,15,3.7,3.7,0,0,1,7.47,12.78Z"></path><path d="M40.4,11.64h-4a2,2,0,0,1,4,0Z"></path><path d="M65.51,11.64a2,2,0,0,1,4,0Z"></path><path d="M82,15.13a1.7,1.7,0,0,1,.47-1.23,1.09,1.09,0,0,1,1.6,0,1.84,1.84,0,0,1,0,2.47,1.1,1.1,0,0,1-1.62,0A1.67,1.67,0,0,1,82,15.13Z"></path><path d="M94.59,8.07a1.54,1.54,0,0,1,1.56-1.56,1.55,1.55,0,0,1,1.54,1.54,1.57,1.57,0,0,1-1.56,1.57A1.52,1.52,0,0,1,94.59,8.07Zm2.07.27A.73.73,0,0,0,97,7.53a.56.56,0,0,0-.51-.47c-.36,0-.73,0-1.1,0V8.93h.5V8.45a.33.33,0,0,1,.47.2c.16.35.27.38.69.26Z"></path><path d="M95.86,8v-.6c.21,0,.44-.07.59.12a.37.37,0,0,1,0,.34C96.32,8.1,96.09,8,95.86,8Z"></path></g></g></svg> 